<?xml version="1.0" standalone="no"?>
<!DOCTYPE svg PUBLIC "-//W3C//DTD SVG 20010904//EN"
 "http://www.w3.org/TR/2001/REC-SVG-20010904/DTD/svg10.dtd">
<svg version="1.0" xmlns="http://www.w3.org/2000/svg"
 width="300.000000pt" height="300.000000pt" viewBox="0 0 300.000000 300.000000"
 preserveAspectRatio="xMidYMid meet">
<metadata>
Created by potrace 1.10, written by Peter Selinger 2001-2011
</metadata>
<g transform="translate(0.000000,300.000000) scale(0.100000,-0.100000)"
fill="#000000" stroke="none">
<path d="M1077 2890 c-336 -32 -560 -113 -703 -255 -180 -180 -250 -409 -275
-907 -13 -272 0 -632 31 -815 92 -542 328 -740 955 -804 146 -15 679 -15 830
0 350 34 558 108 711 253 98 92 161 211 209 392 95 355 97 1114 4 1480 -100
393 -316 568 -796 642 -84 13 -194 17 -493 19 -212 2 -425 -1 -473 -5z m823
-24 c25 -4 83 -11 130 -17 91 -12 216 -40 265 -59 17 -6 39 -13 49 -16 31 -6
176 -77 176 -86 0 -4 6 -8 13 -8 15 0 92 -72 132 -123 95 -122 170 -343 190
-564 26 -288 32 -625 14 -853 -37 -465 -141 -700 -375 -846 -67 -41 -197 -94
-264 -108 -14 -3 -34 -7 -45 -9 -83 -19 -235 -38 -371 -47 -150 -11 -583 -8
-699 5 -27 3 -75 8 -105 11 -30 3 -62 6 -70 6 -67 1 -315 73 -367 106 -12 7
-24 12 -27 10 -11 -6 -129 87 -180 143 -135 145 -202 352 -235 724 -10 111 -8
589 3 745 10 150 49 375 71 410 3 6 9 23 11 38 15 82 103 221 194 305 57 53
183 127 216 127 8 0 14 4 14 9 0 25 297 84 495 99 123 9 695 8 765 -2z"/>
<path d="M1754 2425 c-22 -22 -24 -31 -24 -124 0 -77 4 -103 16 -115 21 -21
54 -20 70 2 16 20 19 203 4 231 -16 31 -39 33 -66 6z m54 -124 c-3 -94 -5
-106 -22 -109 -29 -6 -36 16 -36 115 0 71 4 95 16 108 13 12 19 13 30 4 11 -9
14 -36 12 -118z"/>
<path d="M1192 2208 c-26 -26 -12 -56 59 -127 40 -39 80 -73 91 -77 23 -7 58
21 58 46 0 10 -34 52 -75 94 -76 76 -106 91 -133 64z m186 -168 c-7 -33 -37
-17 -111 58 -74 75 -78 80 -61 96 16 17 21 13 96 -61 43 -43 77 -85 76 -93z"/>
<path d="M2305 2190 c-10 -11 -24 -20 -32 -20 -7 0 -13 -4 -13 -9 0 -5 -20
-31 -45 -57 -51 -56 -62 -79 -45 -99 24 -29 63 -17 118 35 29 28 58 50 64 50
6 0 8 3 5 7 -4 3 -1 13 7 22 27 31 28 58 4 75 -29 21 -41 20 -63 -4z m56 -16
c11 -13 1 -27 -69 -97 -78 -77 -83 -81 -99 -64 -17 16 -13 21 62 97 44 44 82
80 86 80 4 0 12 -7 20 -16z"/>
<path d="M1640 2058 c-19 -5 -40 -14 -47 -20 -7 -5 -18 -6 -24 -2 -7 4 -9 3
-5 -4 10 -16 -15 -27 -26 -11 -8 11 -9 10 -4 -3 3 -12 0 -18 -10 -18 -9 0 -25
-11 -36 -25 -11 -14 -24 -22 -30 -19 -6 4 -8 2 -4 -4 3 -5 3 -12 -2 -14 -13
-5 -52 -74 -52 -91 0 -9 10 -23 22 -31 23 -16 55 -7 71 21 5 7 13 10 19 7 6
-4 8 -2 4 4 -3 6 3 17 14 25 11 7 17 17 13 20 -3 4 1 7 9 7 9 0 18 4 20 8 9
21 81 52 145 62 107 17 229 -16 285 -77 9 -10 28 -29 42 -42 14 -13 26 -29 26
-37 0 -8 4 -14 9 -14 5 0 19 -26 31 -57 18 -48 21 -74 18 -148 -5 -113 -25
-158 -113 -249 -69 -71 -78 -96 -44 -119 18 -13 25 -13 59 2 21 9 37 17 36 19
-2 1 16 24 40 50 87 94 132 225 119 351 -4 42 -8 88 -9 103 0 14 -4 24 -8 22
-10 -7 -39 66 -31 79 3 5 2 7 -4 4 -6 -4 -27 18 -48 48 -20 30 -42 55 -47 55
-5 0 -6 5 -3 10 4 6 3 9 -2 8 -13 -4 -93 45 -87 53 3 5 -2 6 -10 3 -8 -3 -27
3 -42 13 -23 14 -50 18 -144 20 -63 0 -131 -3 -150 -9z m323 -51 c225 -111
311 -379 193 -602 -36 -69 -127 -165 -157 -165 -41 0 -31 29 30 89 167 163
166 414 -3 569 -77 69 -146 96 -256 96 -115 0 -189 -33 -265 -117 -54 -60 -85
-70 -85 -29 0 24 61 95 114 131 76 53 149 72 257 68 88 -2 103 -6 172 -40z"/>
<path d="M1153 1820 c-139 -21 -273 -124 -343 -265 l-41 -83 -44 0 c-85 0
-190 -54 -251 -129 -79 -98 -104 -246 -60 -351 47 -111 158 -209 257 -227 20
-4 268 -7 550 -8 601 -2 582 -5 674 95 61 65 85 125 85 208 0 78 -23 137 -76
198 -48 55 -83 77 -148 97 -39 12 -40 13 -54 81 -18 90 -56 166 -117 233 -116
127 -259 177 -432 151z m251 -53 c158 -73 259 -208 281 -379 6 -47 7 -48 46
-54 144 -23 252 -185 220 -329 -24 -107 -119 -202 -218 -219 -21 -3 -259 -6
-529 -6 -465 0 -496 1 -557 20 -83 26 -155 88 -194 168 -24 50 -28 69 -28 147
0 71 5 100 22 137 52 113 169 190 290 192 49 1 63 4 63 16 0 9 15 47 34 86 41
86 115 163 197 204 82 42 120 50 225 46 72 -2 102 -8 148 -29z"/>
<path d="M1162 1739 c-67 -13 -146 -53 -196 -99 -46 -43 -116 -164 -116 -202
0 -47 -15 -56 -88 -50 -55 4 -77 0 -120 -18 -96 -42 -172 -154 -172 -255 0
-98 72 -208 165 -251 l50 -24 523 0 c570 0 563 -1 626 58 84 79 88 231 8 315
-39 42 -79 60 -147 66 l-60 6 -6 83 c-14 191 -143 337 -329 372 -60 11 -77 11
-138 -1z m221 -52 c71 -33 160 -119 188 -184 12 -27 25 -86 30 -133 10 -96 26
-119 85 -121 80 -3 137 -37 171 -103 19 -37 18 -137 -2 -175 -24 -47 -83 -89
-139 -100 -76 -14 -990 -8 -1042 7 -61 18 -116 63 -144 118 -20 40 -25 64 -25
125 0 67 4 82 30 125 53 85 151 131 250 117 51 -7 85 14 85 51 0 28 62 154 93
187 35 38 95 76 158 99 76 29 183 23 262 -13z"/>
<path d="M2461 1672 c-110 -3 -131 -10 -131 -47 0 -36 21 -45 111 -46 116 -2
125 -1 143 17 21 20 20 36 -1 60 -16 17 -30 19 -122 16z m114 -47 c0 -19 -8
-20 -109 -23 -111 -3 -131 3 -119 35 4 11 30 13 117 11 103 -3 111 -4 111 -23z"/>
<path d="M2176 1231 c-26 -28 -14 -51 66 -131 70 -70 100 -84 126 -58 17 17
15 65 -4 72 -8 3 -12 10 -9 16 3 5 2 10 -4 10 -6 0 -35 25 -66 55 -58 59 -82
66 -109 36z m118 -80 c74 -74 77 -79 60 -95 -16 -17 -21 -14 -97 62 -55 56
-78 85 -74 96 11 29 31 17 111 -63z"/>
</g>
</svg>
